<?xml version="1.0" encoding="utf-8"?>
<svg viewBox="51.037 178.92 360.485 130.272" width="360.485" height="130.272" xmlns="http://www.w3.org/2000/svg">
  <path d="M 99.293 184.985 C 106.504 216.135 82.888 245.893 51.037 245.915 C 83.136 245.937 106.791 275.693 99.541 306.846 L 159.859 306.938 C 151.166 271.145 119.06 245.949 82.168 245.915 C 118.896 245.881 150.936 220.685 159.607 184.892 L 99.293 184.985 Z" style="fill: rgb(255, 149, 5); stroke-width: 0px;"/>
  <path d="M 193.053 97.227 L 197.753 104.667 L 194.533 104.667 L 191.043 99.047 L 189.843 99.897 L 189.843 104.667 L 187.013 104.667 L 187.013 91.317 L 189.843 91.317 L 189.843 97.427 L 190.953 95.857 L 194.573 91.317 L 197.713 91.317 L 193.053 97.227 ZM 208.631 98.007 L 208.631 104.667 L 205.851 104.667 L 205.851 98.707 C 205.851 97.967 205.721 97.414 205.461 97.047 C 205.194 96.68 204.777 96.497 204.211 96.497 C 203.431 96.497 202.867 96.757 202.521 97.277 C 202.174 97.797 202.001 98.66 202.001 99.867 L 202.001 104.667 L 199.211 104.667 L 199.211 94.457 L 201.341 94.457 L 201.711 95.767 L 201.871 95.767 C 202.177 95.274 202.604 94.9 203.151 94.647 C 203.697 94.394 204.317 94.267 205.011 94.267 C 206.197 94.267 207.097 94.587 207.711 95.227 C 208.324 95.874 208.631 96.8 208.631 98.007 ZM 213.721 99.547 C 213.721 100.554 213.887 101.317 214.221 101.837 C 214.547 102.357 215.087 102.617 215.841 102.617 C 216.581 102.617 217.114 102.357 217.441 101.837 C 217.767 101.324 217.931 100.56 217.931 99.547 C 217.931 98.534 217.767 97.774 217.441 97.267 C 217.107 96.767 216.567 96.517 215.821 96.517 C 215.081 96.517 214.544 96.767 214.211 97.267 C 213.884 97.767 213.721 98.527 213.721 99.547 Z M 220.781 99.547 C 220.781 101.207 220.341 102.507 219.461 103.447 C 218.587 104.38 217.367 104.847 215.801 104.847 C 214.821 104.847 213.957 104.634 213.211 104.207 C 212.464 103.78 211.887 103.164 211.481 102.357 C 211.081 101.55 210.881 100.614 210.881 99.547 C 210.881 97.88 211.317 96.584 212.191 95.657 C 213.057 94.73 214.281 94.267 215.861 94.267 C 216.841 94.267 217.704 94.48 218.451 94.907 C 219.197 95.334 219.774 95.944 220.181 96.737 C 220.581 97.537 220.781 98.474 220.781 99.547 ZM 234.498 104.667 L 231.468 104.667 L 230.688 101.097 L 229.628 96.587 L 229.558 96.587 L 227.698 104.667 L 224.708 104.667 L 221.798 94.457 L 224.578 94.457 L 225.758 98.977 C 225.945 99.79 226.135 100.907 226.328 102.327 L 226.388 102.327 C 226.408 101.867 226.515 101.134 226.708 100.127 L 226.848 99.357 L 228.108 94.457 L 231.178 94.457 L 232.378 99.357 C 232.398 99.49 232.435 99.687 232.488 99.947 C 232.542 100.207 232.592 100.484 232.638 100.777 C 232.685 101.077 232.728 101.367 232.768 101.647 C 232.808 101.934 232.832 102.16 232.838 102.327 L 232.898 102.327 C 232.952 101.894 233.048 101.294 233.188 100.527 C 233.328 99.76 233.428 99.244 233.488 98.977 L 234.708 94.457 L 237.438 94.457 L 234.498 104.667 Z" transform="matrix(2.9523348808288574, 0, 0, 2.9523348808288574, -378.5040588378906, -71.19827270507812)" style="fill: rgb(255, 149, 5); white-space: pre;"/>
  <path d="M 195.263 123.367 L 187.013 123.367 L 187.013 110.017 L 189.843 110.017 L 189.843 121.027 L 195.263 121.027 L 195.263 123.367 ZM 201.587 114.947 C 200.994 114.947 200.531 115.134 200.197 115.507 C 199.864 115.88 199.674 116.414 199.627 117.107 L 203.527 117.107 C 203.521 116.414 203.341 115.88 202.987 115.507 C 202.641 115.134 202.174 114.947 201.587 114.947 Z M 201.977 123.547 C 200.337 123.547 199.054 123.094 198.127 122.187 C 197.201 121.28 196.737 119.997 196.737 118.337 C 196.737 116.624 197.164 115.3 198.017 114.367 C 198.877 113.434 200.061 112.967 201.567 112.967 C 203.007 112.967 204.131 113.377 204.937 114.197 C 205.737 115.024 206.137 116.16 206.137 117.607 L 206.137 118.957 L 199.557 118.957 C 199.591 119.75 199.824 120.367 200.257 120.807 C 200.697 121.254 201.314 121.477 202.107 121.477 C 202.721 121.477 203.301 121.414 203.847 121.287 C 204.394 121.16 204.967 120.957 205.567 120.677 L 205.567 122.827 C 205.081 123.074 204.561 123.254 204.007 123.367 C 203.454 123.487 202.777 123.547 201.977 123.547 ZM 216.835 123.367 L 214.885 123.367 L 214.355 121.977 L 214.275 121.977 C 213.809 122.57 213.325 122.98 212.825 123.207 C 212.332 123.434 211.685 123.547 210.885 123.547 C 209.905 123.547 209.135 123.267 208.575 122.707 C 208.015 122.147 207.735 121.35 207.735 120.317 C 207.735 119.237 208.112 118.437 208.865 117.917 C 209.625 117.404 210.769 117.12 212.295 117.067 L 214.065 117.007 L 214.065 116.567 C 214.065 115.534 213.535 115.017 212.475 115.017 C 211.662 115.017 210.705 115.26 209.605 115.747 L 208.675 113.867 C 209.855 113.254 211.159 112.947 212.585 112.947 C 213.959 112.947 215.009 113.247 215.735 113.847 C 216.469 114.44 216.835 115.347 216.835 116.567 L 216.835 123.367 Z M 214.065 119.477 L 214.065 118.637 L 212.985 118.677 C 212.179 118.697 211.579 118.844 211.185 119.117 C 210.785 119.384 210.585 119.79 210.585 120.337 C 210.585 121.124 211.035 121.517 211.935 121.517 C 212.582 121.517 213.099 121.33 213.485 120.957 C 213.872 120.584 214.065 120.09 214.065 119.477 ZM 225.4 112.967 C 225.773 112.967 226.087 112.994 226.34 113.047 L 226.13 115.657 C 225.903 115.597 225.63 115.567 225.31 115.567 C 224.417 115.567 223.723 115.797 223.23 116.257 C 222.737 116.71 222.49 117.347 222.49 118.167 L 222.49 123.367 L 219.7 123.367 L 219.7 113.157 L 221.81 113.157 L 222.22 114.877 L 222.36 114.877 C 222.673 114.304 223.1 113.84 223.64 113.487 C 224.18 113.14 224.767 112.967 225.4 112.967 ZM 237.611 116.707 L 237.611 123.367 L 234.831 123.367 L 234.831 117.407 C 234.831 116.667 234.701 116.114 234.441 115.747 C 234.175 115.38 233.758 115.197 233.191 115.197 C 232.411 115.197 231.848 115.457 231.501 115.977 C 231.155 116.497 230.981 117.36 230.981 118.567 L 230.981 123.367 L 228.191 123.367 L 228.191 113.157 L 230.321 113.157 L 230.691 114.467 L 230.851 114.467 C 231.158 113.974 231.585 113.6 232.131 113.347 C 232.678 113.094 233.298 112.967 233.991 112.967 C 235.178 112.967 236.078 113.287 236.691 113.927 C 237.305 114.574 237.611 115.5 237.611 116.707 ZM 240.361 110.517 C 240.361 109.61 240.868 109.157 241.881 109.157 C 242.888 109.157 243.391 109.61 243.391 110.517 C 243.391 110.95 243.265 111.287 243.011 111.527 C 242.765 111.767 242.388 111.887 241.881 111.887 C 240.868 111.887 240.361 111.43 240.361 110.517 Z M 243.271 113.157 L 243.271 123.367 L 240.481 123.367 L 240.481 113.157 L 243.271 113.157 ZM 255.608 116.707 L 255.608 123.367 L 252.828 123.367 L 252.828 117.407 C 252.828 116.667 252.698 116.114 252.438 115.747 C 252.171 115.38 251.755 115.197 251.188 115.197 C 250.408 115.197 249.845 115.457 249.498 115.977 C 249.151 116.497 248.978 117.36 248.978 118.567 L 248.978 123.367 L 246.188 123.367 L 246.188 113.157 L 248.318 113.157 L 248.688 114.467 L 248.848 114.467 C 249.155 113.974 249.581 113.6 250.128 113.347 C 250.675 113.094 251.295 112.967 251.988 112.967 C 253.175 112.967 254.075 113.287 254.688 113.927 C 255.301 114.574 255.608 115.5 255.608 116.707 ZM 263.798 113.157 L 267.368 113.157 L 267.368 114.577 L 265.768 114.987 C 266.061 115.44 266.208 115.95 266.208 116.517 C 266.208 117.617 265.825 118.47 265.058 119.077 C 264.291 119.69 263.231 119.997 261.878 119.997 L 261.378 119.967 L 260.958 119.927 C 260.678 120.147 260.538 120.39 260.538 120.657 C 260.538 121.057 261.048 121.257 262.068 121.257 L 263.798 121.257 C 264.918 121.257 265.775 121.497 266.368 121.977 C 266.955 122.457 267.248 123.164 267.248 124.097 C 267.248 125.29 266.748 126.217 265.748 126.877 C 264.755 127.53 263.328 127.857 261.468 127.857 C 260.041 127.857 258.951 127.61 258.198 127.117 C 257.445 126.617 257.068 125.92 257.068 125.027 C 257.068 124.414 257.261 123.9 257.648 123.487 C 258.035 123.074 258.598 122.777 259.338 122.597 C 259.051 122.477 258.801 122.277 258.588 121.997 C 258.375 121.724 258.268 121.43 258.268 121.117 C 258.268 120.73 258.381 120.407 258.608 120.147 C 258.835 119.887 259.161 119.634 259.588 119.387 C 259.048 119.154 258.621 118.78 258.308 118.267 C 257.995 117.76 257.838 117.16 257.838 116.467 C 257.838 115.354 258.201 114.49 258.928 113.877 C 259.648 113.27 260.681 112.967 262.028 112.967 C 262.315 112.967 262.655 112.994 263.048 113.047 C 263.441 113.1 263.691 113.137 263.798 113.157 Z M 259.488 124.807 C 259.488 125.194 259.671 125.497 260.038 125.717 C 260.405 125.937 260.921 126.047 261.588 126.047 C 262.581 126.047 263.361 125.907 263.928 125.627 C 264.495 125.354 264.778 124.98 264.778 124.507 C 264.778 124.127 264.611 123.864 264.278 123.717 C 263.945 123.57 263.428 123.497 262.728 123.497 L 261.278 123.497 C 260.771 123.497 260.345 123.617 259.998 123.857 C 259.658 124.097 259.488 124.414 259.488 124.807 Z M 260.498 116.497 C 260.498 117.05 260.625 117.49 260.878 117.817 C 261.131 118.137 261.515 118.297 262.028 118.297 C 262.555 118.297 262.938 118.137 263.178 117.817 C 263.425 117.49 263.548 117.05 263.548 116.497 C 263.548 115.27 263.041 114.657 262.028 114.657 C 261.008 114.657 260.498 115.27 260.498 116.497 Z" transform="matrix(2.9523348808288574, 0, 0, 2.9523348808288574, -378.5040588378906, -71.19827270507812)" style="fill: rgb(255, 149, 5); white-space: pre;"/>
</svg>